<svg width="19" height="19" viewBox="0 0 19 19" fill="none" xmlns="http://www.w3.org/2000/svg">
<path d="M17.9953 7.05509L10.7009 13.1444C10.0047 13.7259 8.99698 13.7262 8.30017 13.1452L3.71881 9.32457C3.53617 9.17222 3.4533 8.93028 3.50388 8.697L3.85513 7.07727C3.894 6.89841 4.10177 6.81834 4.24926 6.9252L8.48281 9.99821C9.09097 10.4394 9.91097 10.4394 10.5189 9.99735L17.2294 5.1197C17.2943 5.07246 17.3212 4.98433 17.2954 4.90513L16.5701 2.68605C16.553 2.63391 16.5135 2.59186 16.4623 2.572L10.1887 0.129421C9.7463 -0.0430935 9.25588 -0.0430935 8.81319 0.12914L2.53675 2.572C2.48586 2.59186 2.44614 2.63391 2.42899 2.68605L0.00969247 10.0979C-0.0131586 10.1678 0.00512248 10.2445 0.0568607 10.2966L8.11614 18.4114C8.89581 19.1962 10.1064 19.1962 10.8858 18.4111L18.9448 10.2943C18.9951 10.2436 19.0128 10.169 18.9905 10.101L17.9953 7.05509ZM8.87951 3.02978C9.27594 2.84575 9.72579 2.84575 10.1225 3.02978L12.9076 4.32234L10.2385 5.94095C9.78035 6.21858 9.22134 6.21858 8.7632 5.94095L6.0944 4.32234L8.87951 3.02978Z" fill="black"/>
</svg>
