<svg width="16" height="16" viewBox="0 0 16 16" fill="none" xmlns="http://www.w3.org/2000/svg">
<g clip-path="url(#clip0_84_57)">
<path d="M5.71421 10.42C4.97474 10.3528 2.28583 4.50441 4.70586 1.74828C6.95199 -0.526281 11.3135 0.669844 13.1087 2.75663C8.25189 1.4755 6.93221 10.6084 5.71421 10.42ZM7.99977 14.7895C1.61055 14.8358 -1.98645 6.49003 3.69752 1.94994C0.806893 5.17663 4.03361 12.1678 5.84864 12.3695C8.13424 12.5039 9.00811 5.24388 11.697 4.30275C15.6385 3.01913 16.4961 14.3214 7.99977 14.7895ZM8.26867 1.21047C5.52346 1.25375 5.44377 2.39703 8.20146 2.42047C10.9263 2.39122 10.9913 1.24178 8.26864 1.21047M16.0002 8C16.0002 1.86444 9.31249 -1.99112 3.99121 1.07666C-1.33008 4.14444 -1.33008 11.8556 3.99121 14.9233C9.31249 17.9911 16.0002 14.1356 16.0002 8Z" fill="black"/>
</g>
<defs>
<clipPath id="clip0_84_57">
<rect width="16" height="16" fill="white"/>
</clipPath>
</defs>
</svg>
