<svg width="653" height="653" viewBox="0 0 653 653" fill="none" xmlns="http://www.w3.org/2000/svg">
<rect width="653" height="653" rx="100" fill="white"/>
<path d="M62.9 447V402.78C131.54 403.77 169.49 372.75 169.49 318.3V188.28H214.7V318.3C214.7 357.9 200.84 389.58 173.45 413.01C146.06 436.44 109.1 447.66 62.9 447ZM293.823 447V188.28H469.383C492.153 188.28 511.623 196.53 527.793 212.7C543.963 228.87 552.213 248.01 552.213 270.78C552.213 293.55 543.963 313.02 527.793 329.19C511.623 345.36 492.153 353.28 469.383 353.28H339.033V447H293.823ZM339.033 309.72H467.073C478.293 309.72 487.863 306.09 495.453 298.5C503.373 290.91 507.333 281.67 507.333 270.78C507.333 259.89 503.373 250.65 495.783 243.06C488.193 235.47 478.623 231.51 467.073 231.51H339.033V309.72Z" fill="black"/>
<rect x="562" y="417" width="30" height="30" fill="black"/>
</svg>
